<?xml version="1.0" encoding="UTF-8" standalone="no" ?>
<!DOCTYPE svg PUBLIC "-//W3C//DTD SVG 1.1//EN" "http://www.w3.org/Graphics/SVG/1.1/DTD/svg11.dtd">
<svg xmlns="http://www.w3.org/2000/svg" xmlns:xlink="http://www.w3.org/1999/xlink" version="1.1" width="1280" height="640" viewBox="0 0 1280 640" xml:space="preserve">
<desc>Created with Fabric.js 3.6.3</desc>
<defs>
</defs>
<g transform="matrix(12.8 0 0 -6.4 640 320)"  >
<linearGradient id="SVGID_357" gradientUnits="userSpaceOnUse" gradientTransform="matrix(1 0 0 1 -50 -50)"  x1="50" y1="0" x2="50" y2="100">
<stop offset="0%" style="stop-color:rgba(221, 63, 143, 1);"/>
<stop offset="100%" style="stop-color:rgba(57, 65, 143, 1);"/>
</linearGradient>
<polygon style="stroke: rgb(0,0,0); stroke-width: 0; stroke-dasharray: none; stroke-linecap: butt; stroke-dashoffset: 0; stroke-linejoin: miter; stroke-miterlimit: 4; fill: url(#SVGID_357); fill-rule: nonzero; opacity: 1;" vector-effect="non-scaling-stroke"  points="-50,-50 -50,50 50,50 50,-50 " />
</g>
<g transform="matrix(2.03 0 0 2.03 640.43 452.07)"  >
<g style=""   >
		<g transform="matrix(1 0 0 1 -230.61 0.9)"  >
<path style="stroke: none; stroke-width: 1; stroke-dasharray: none; stroke-linecap: butt; stroke-dashoffset: 0; stroke-linejoin: miter; stroke-miterlimit: 4; fill: rgb(0,0,0); fill-rule: nonzero; opacity: 0.2;"  transform=" translate(-25.39, -33)" d="M 49 2.6 c -0.4 -0.5 -0.8 -0.8 -1.5 -0.8 H 19.7 c -0.6 0 -1.1 0.4 -1.5 1 L 5.1 28.9 c -0.4 0.5 -0.2 1.1 0 1.7 c 0.4 0.5 0.8 0.8 1.5 0.8 h 9 L 1.8 61.9 c -0.4 0.6 -0.2 1.5 0.5 1.9 c 0.4 0.2 0.6 0.4 1 0.4 s 0.7 -0.1 1 -0.4 L 43.7 31 c 0.5 -0.5 0.6 -1.1 0.5 -1.8 c -0.2 -0.8 -0.8 -1.3 -1.5 -1.3 h -10 L 48.9 4.3 c 0.3 -0.4 0.4 -1.1 0.1 -1.7 z" stroke-linecap="round" />
</g>
		<g transform="matrix(1 0 0 1 -232.24 -0.85)"  >
<linearGradient id="SVGID_A_13" gradientUnits="userSpaceOnUse" gradientTransform="matrix(1 0 0 1 0 0)"  x1="-0.004" y1="31.25" x2="47.524" y2="31.25">
<stop offset="0%" style="stop-color:rgb(255,207,27);stop-opacity: 1"/>
<stop offset="100%" style="stop-color:rgb(255,136,27);stop-opacity: 1"/>
</linearGradient>
<path style="stroke: none; stroke-width: 1; stroke-dasharray: none; stroke-linecap: butt; stroke-dashoffset: 0; stroke-linejoin: miter; stroke-miterlimit: 4; fill: url(#SVGID_A_13); fill-rule: nonzero; opacity: 1;"  transform=" translate(-23.76, -31.25)" d="M 47.3 0.8 c -0.3 -0.5 -0.8 -0.8 -1.4 -0.8 H 18 c -0.6 0 -1.1 0.4 -1.5 1 l -13 26.2 c -0.4 0.5 -0.2 1.1 0 1.7 c 0.4 0.5 0.8 0.8 1.5 0.8 h 9 L 0.2 60.2 c -0.4 0.6 -0.2 1.5 0.5 1.9 c 0.4 0.2 0.6 0.4 1 0.4 s 0.7 -0.1 1 -0.4 l 39.4 -32.8 c 0.5 -0.5 0.6 -1.1 0.5 -1.8 c -0.2 -0.8 -0.8 -1.3 -1.5 -1.3 H 31 L 47.2 2.6 c 0.3 -0.5 0.5 -1.2 0.1 -1.8 z" stroke-linecap="round" />
</g>
		<g transform="matrix(1 0 0 1 28.5 0.85)"  >
<path style="stroke: none; stroke-width: 1; stroke-dasharray: none; stroke-linecap: butt; stroke-dashoffset: 0; stroke-linejoin: miter; stroke-miterlimit: 4; fill: rgb(0,0,0); fill-rule: nonzero; opacity: 0.2;"  transform=" translate(-284.5, -32.95)" d="M 64.1 21.7 v 0.9 c 1.4 -1.8 2.9 -3.1 4.5 -3.9 s 3.3 -1.3 5.3 -1.3 c 2.4 0 4.5 0.6 6.5 1.8 s 3.5 3 4.7 5.3 s 1.7 5.1 1.7 8.3 c 0 2.4 -0.3 4.5 -1 6.5 c -0.6 2 -1.6 3.6 -2.7 5 c -1.2 1.3 -2.5 2.4 -4.1 3.1 s -3.3 1.1 -5.1 1.1 c -2.2 0 -4 -0.5 -5.5 -1.3 c -1.5 -0.9 -2.9 -2.1 -4.2 -3.9 v 11.5 c 0 3.4 -1.2 5 -3.6 5 c -1.4 0 -2.4 -0.5 -2.8 -1.3 s -0.8 -2.2 -0.8 -3.9 V 21.8 c 0 -1.4 0.3 -2.5 0.9 -3.2 s 1.5 -1.1 2.6 -1.1 s 2 0.3 2.7 1.1 c 0.6 0.7 0.9 1.8 0.9 3.1 h 0 h 0 z m 15 11.2 c 0 -2 -0.3 -3.8 -0.9 -5.2 s -1.4 -2.5 -2.5 -3.4 c -1.1 -0.8 -2.3 -1.2 -3.6 -1.2 c -2.1 0 -3.9 0.8 -5.3 2.5 s -2.2 4.1 -2.2 7.3 c 0 3.1 0.7 5.4 2.1 7.1 s 3.2 2.5 5.4 2.5 c 1.3 0 2.4 -0.3 3.5 -1.1 s 2 -1.9 2.6 -3.3 s 0.9 -3.2 0.9 -5.2 h 0 z m 21.4 -22.2 V 22 c 1 -1.1 1.9 -2 2.8 -2.7 c 0.9 -0.6 2 -1.2 3.1 -1.4 c 1.2 -0.3 2.4 -0.5 3.6 -0.5 c 2 0 3.6 0.4 5.1 1.2 s 2.7 2 3.5 3.6 c 0.5 1 0.9 2 1.1 3.1 c 0.2 1.2 0.3 2.4 0.3 3.9 v 14.6 c 0 1.5 -0.3 2.7 -1 3.5 s -1.6 1.2 -2.8 1.2 c -2.5 0 -3.8 -1.6 -3.8 -4.6 V 31.1 c 0 -2.4 -0.3 -4.3 -1.1 -5.7 s -2.1 -2 -4.2 -2 c -1.4 0 -2.6 0.4 -3.7 1.2 s -1.9 1.9 -2.4 3.2 c -0.4 1.2 -0.6 3.2 -0.6 6.1 V 44 c 0 1.5 -0.3 2.7 -1 3.5 s -1.6 1.2 -2.8 1.2 c -2.5 0 -3.8 -1.6 -3.8 -4.6 V 10.8 c 0 -1.6 0.3 -2.7 1 -3.5 s 1.6 -1.2 2.8 -1.2 s 2.1 0.4 2.8 1.2 s 1.1 1.9 1.1 3.4 h 0 z m 34.2 11 v 0.9 c 1.4 -1.8 2.9 -3.1 4.5 -3.9 s 3.3 -1.3 5.3 -1.3 c 2.4 0 4.5 0.6 6.5 1.8 s 3.5 3 4.7 5.3 s 1.7 5.1 1.7 8.3 c 0 2.4 -0.3 4.5 -1 6.5 s -1.6 3.6 -2.7 5 c -1.2 1.3 -2.5 2.4 -4.1 3.1 s -3.3 1.1 -5.1 1.1 c -2.2 0 -4 -0.5 -5.5 -1.3 s -2.9 -2.1 -4.2 -3.9 v 11.5 c 0 3.4 -1.2 5 -3.6 5 c -1.4 0 -2.4 -0.5 -2.8 -1.3 s -0.7 -2.1 -0.7 -3.8 V 21.8 c 0 -1.4 0.3 -2.5 0.9 -3.2 s 1.5 -1.1 2.6 -1.1 s 2 0.3 2.7 1.1 c 0.5 0.7 0.8 1.8 0.8 3.1 h 0 h 0 h 0 h 0 z m 15 11.2 c 0 -2 -0.3 -3.8 -0.9 -5.2 s -1.4 -2.5 -2.5 -3.4 c -1.1 -0.8 -2.3 -1.2 -3.6 -1.2 c -2.1 0 -3.9 0.8 -5.3 2.5 s -2.2 4.1 -2.2 7.3 c 0 3.1 0.7 5.4 2.1 7.1 s 3.2 2.5 5.4 2.5 c 1.3 0 2.4 -0.3 3.5 -1.1 s 2 -1.9 2.6 -3.3 c 0.5 -1.3 0.9 -3.2 0.9 -5.2 h 0 h 0 z m 49.3 2 c 0 1.3 -0.3 2.7 -1 4.2 c -0.6 1.5 -1.7 3 -3.1 4.5 s -3.1 2.7 -5.3 3.6 c -2.1 0.9 -4.6 1.4 -7.5 1.4 c -2.1 0 -4.2 -0.2 -5.9 -0.6 c -1.8 -0.4 -3.4 -1 -4.9 -1.9 c -1.4 -0.9 -2.8 -2 -4 -3.4 c -1.1 -1.3 -2 -2.7 -2.8 -4.3 s -1.3 -3.4 -1.7 -5.1 c -0.4 -1.8 -0.6 -3.8 -0.6 -5.8 c 0 -3.3 0.5 -6.2 1.4 -8.9 c 1 -2.6 2.3 -4.9 4.1 -6.7 c 1.8 -1.9 3.9 -3.3 6.3 -4.2 c 2.4 -1 5 -1.4 7.7 -1.4 c 3.3 0 6.3 0.6 8.9 2 s 4.6 2.9 6 4.9 s 2.1 3.8 2.1 5.6 c 0 0.9 -0.3 1.8 -1 2.5 c -0.6 0.7 -1.5 1.1 -2.4 1.1 c -1 0 -1.9 -0.2 -2.4 -0.8 s -1.1 -1.4 -1.8 -2.6 c -1.1 -2 -2.4 -3.6 -3.8 -4.6 s -3.3 -1.5 -5.4 -1.5 c -3.4 0 -6.1 1.3 -8.2 3.9 s -3.1 6.3 -3.1 11 c 0 3.2 0.5 5.8 1.3 8 c 0.9 2.1 2.1 3.7 3.8 4.7 c 1.6 1 3.6 1.6 5.8 1.6 c 2.4 0 4.4 -0.6 6.1 -1.8 s 2.9 -2.9 3.8 -5.2 c 0.3 -1 0.7 -1.9 1.3 -2.7 c 0.5 -0.7 1.4 -1 2.5 -1 c 1 0 1.9 0.3 2.5 1 c 1 0.6 1.3 1.5 1.3 2.5 h 0 h 0 h 0 z m 26.3 9.3 c -1.9 1.4 -3.6 2.5 -5.4 3.2 c -1.7 0.7 -3.6 1.1 -5.8 1.1 c -2 0 -3.7 -0.4 -5.1 -1.2 c -1.5 -0.8 -2.6 -1.9 -3.4 -3.1 c -0.8 -1.3 -1.2 -2.8 -1.2 -4.3 c 0 -2.1 0.6 -3.9 2 -5.4 c 1.3 -1.5 3.1 -2.5 5.4 -2.9 l 3.6 -0.8 l 5 -1.1 c 1.4 -0.3 2.8 -0.8 4.5 -1.2 c -0.1 -2 -0.5 -3.5 -1.2 -4.5 s -2.2 -1.4 -4.5 -1.4 c -2 0 -3.4 0.3 -4.4 0.8 s -1.8 1.3 -2.5 2.4 l -1.5 2.1 s -0.9 0.5 -1.9 0.5 c -0.9 0 -1.6 -0.3 -2.3 -0.8 c -0.6 -0.6 -0.9 -1.3 -0.9 -2.1 c 0 -1.3 0.5 -2.7 1.4 -3.9 s 2.4 -2.3 4.5 -3.1 c 2 -0.8 4.5 -1.2 7.5 -1.2 c 3.4 0 6 0.4 7.9 1.2 s 3.3 2 4 3.8 c 0.8 1.7 1.2 4 1.2 6.8 v 4.6 l -0.1 4.2 c 0 1.4 0.2 2.9 0.7 4.5 s 0.7 2.5 0.7 3 c 0 0.8 -0.3 1.5 -1.1 2.1 s -1.6 1 -2.5 1 c -0.8 0 -1.6 -0.3 -2.3 -1.1 c -0.6 -0.7 -1.5 -1.8 -2.3 -3.2 h 0 h 0 h 0 h 0 z m -0.5 -11 c -1.1 0.4 -2.8 0.9 -4.9 1.3 l -4.5 1 c -0.8 0.2 -1.6 0.6 -2.4 1.3 c -0.8 0.6 -1.1 1.5 -1.1 2.6 c 0 1.2 0.5 2.1 1.3 2.9 c 0.9 0.8 2 1.2 3.5 1.2 s 2.9 -0.3 4.2 -1 c 1.2 -0.5 2.1 -1.4 2.8 -2.5 c 0.7 -1.2 1 -3.1 1 -5.7 l 0.1 -1.1 h 0 h 0 h 0 h 0 z m 42.7 5.9 c 0 0.9 -0.3 2 -0.9 3.1 s -1.4 2.1 -2.6 3.1 s -2.7 1.8 -4.4 2.4 c -1.8 0.6 -3.8 0.9 -6 0.9 c -4.7 0 -8.4 -1.4 -11 -4.1 c -2.7 -2.8 -4 -6.4 -4 -11.1 c 0 -3.1 0.6 -5.9 1.8 -8.3 s 2.9 -4.3 5.3 -5.6 c 2.3 -1.3 5 -2 8.2 -2 c 2 0 3.8 0.3 5.4 0.9 s 3.1 1.3 4.2 2.3 c 1.2 0.9 2 1.9 2.7 2.9 s 0.9 2 0.9 2.9 s -0.3 1.7 -1 2.3 s -1.5 0.9 -2.5 0.9 c -0.6 0 -1.2 -0.2 -1.6 -0.5 s -0.9 -0.9 -1.4 -1.6 c -0.9 -1.4 -1.9 -2.5 -2.9 -3.2 s -2.3 -1 -3.9 -1 c -2.3 0 -4.1 0.9 -5.4 2.7 s -2.1 4.2 -2.1 7.2 c 0 1.4 0.2 2.8 0.5 4 c 0.3 1.1 0.8 2.2 1.6 3.1 c 0.7 0.8 1.5 1.5 2.4 1.9 c 0.9 0.5 2 0.6 3.1 0.6 c 1.5 0 2.8 -0.3 3.9 -1 s 2.1 -1.8 2.9 -3.2 c 0.4 -0.8 0.9 -1.4 1.5 -2 c 0.5 -0.5 1.2 -0.8 2 -0.8 c 0.9 0 1.7 0.3 2.3 1 s 1 1.4 1 2.2 h 0 h 0 h 0 z m 12.7 -28.3 v 11.3 c 1 -1.1 1.9 -2 2.8 -2.7 a 7.27 7.27 0 0 1 3.1 -1.4 c 1.2 -0.3 2.4 -0.5 3.6 -0.5 c 2 0 3.6 0.4 5.1 1.2 s 2.7 2 3.5 3.6 c 0.5 1 0.9 2 1.1 3.1 c 0.2 1.2 0.3 2.4 0.3 3.9 V 44 c 0 1.5 -0.3 2.7 -1 3.5 s -1.6 1.2 -2.8 1.2 c -2.5 0 -3.8 -1.6 -3.8 -4.6 v -13 c 0 -2.4 -0.3 -4.3 -1.1 -5.7 c -0.8 -1.3 -2.1 -2 -4.2 -2 c -1.4 0 -2.6 0.4 -3.7 1.2 s -1.9 1.9 -2.4 3.2 c -0.4 1.2 -0.6 3.2 -0.6 6.1 V 44 c 0 1.5 -0.3 2.7 -1 3.5 s -1.6 1.2 -2.8 1.2 c -2.5 0 -3.8 -1.6 -3.8 -4.6 V 10.8 c 0 -1.6 0.3 -2.7 1 -3.5 c 0.6 -0.8 1.6 -1.2 2.8 -1.2 s 2.1 0.4 2.8 1.2 c 0.8 0.7 1.1 1.9 1.1 3.5 h 0 h 0 z m 48.6 24.1 h -15 c 0 1.7 0.3 3.3 1 4.6 s 1.6 2.3 2.7 3 s 2.4 1 3.8 1 c 0.9 0 1.7 -0.1 2.5 -0.3 s 1.5 -0.6 2.2 -1 l 2 -1.4 l 2.3 -2.1 c 0.4 -0.3 0.9 -0.5 1.7 -0.5 s 1.4 0.2 1.9 0.6 s 0.8 1 0.8 1.8 c 0 0.7 -0.3 1.5 -0.8 2.4 s -1.3 1.8 -2.4 2.7 s -2.5 1.6 -4.1 2.1 c -1.6 0.6 -3.5 0.9 -5.7 0.9 c -4.9 0 -8.7 -1.4 -11.5 -4.2 c -2.7 -2.8 -4.1 -6.6 -4.1 -11.4 c 0 -2.3 0.3 -4.3 1 -6.3 c 0.6 -2 1.7 -3.6 2.9 -5 c 1.3 -1.4 2.9 -2.4 4.7 -3.2 c 1.9 -0.8 4 -1.1 6.3 -1.1 c 3 0 5.6 0.6 7.7 1.9 s 3.8 2.9 4.8 4.9 s 1.6 4 1.6 6.1 c 0 1.9 -0.6 3.2 -1.7 3.8 c -1.1 0.4 -2.7 0.7 -4.6 0.7 h 0 h 0 h 0 h 0 z m -15 -4.4 h 13.9 c -0.2 -2.6 -0.9 -4.6 -2.1 -5.8 c -1.2 -1.3 -2.8 -2 -4.9 -2 c -1.9 0 -3.5 0.6 -4.7 2 c -1.2 1.3 -1.9 3.3 -2.2 5.8 h 0 h 0 z m 54.5 12.7 l -2 -5.1 h -16.7 l -2 5.3 c -0.8 2.1 -1.4 3.5 -2 4.2 c -0.5 0.7 -1.4 1.1 -2.7 1.1 c -1 0 -2 -0.4 -2.8 -1.2 s -1.2 -1.6 -1.2 -2.6 c 0 -0.6 0.1 -1.2 0.3 -1.7 s 0.5 -1.4 0.9 -2.5 L 350.6 14 l 1.1 -2.8 c 0.5 -1.1 0.9 -2 1.3 -2.7 c 0.5 -0.7 1.1 -1.3 1.9 -1.7 c 0.8 -0.5 1.7 -0.6 2.9 -0.6 s 2.1 0.2 2.9 0.6 c 0.8 0.5 1.4 1 1.9 1.7 s 0.9 1.4 1.2 2.3 l 1.3 3.2 L 376 40.4 c 0.9 2 1.3 3.5 1.3 4.4 s -0.4 1.9 -1.2 2.6 c -0.8 0.8 -1.7 1.2 -2.9 1.2 c -0.6 0 -1.2 -0.1 -1.7 -0.3 s -0.9 -0.6 -1.2 -0.9 s -0.6 -1 -1 -1.9 c -0.5 -0.8 -0.7 -1.7 -1 -2.3 h 0 h 0 z m -16.5 -11.4 h 12.3 l -6.2 -16.9 l -6.1 16.9 h 0 h 0 z m 51.9 12.3 v -0.8 c -0.9 1.1 -1.9 2.1 -3.1 2.9 c -1 0.8 -2.1 1.3 -3.2 1.7 c -1.2 0.4 -2.4 0.6 -3.8 0.6 a 11.25 11.25 0 0 1 -5.1 -1.2 c -1.6 -0.8 -2.9 -1.9 -4 -3.3 c -1.2 -1.4 -2 -3.1 -2.6 -5.1 s -0.9 -4 -0.9 -6.3 c 0 -4.8 1.2 -8.5 3.5 -11.2 s 5.4 -4 9.2 -4 c 2.2 0 4 0.4 5.6 1.2 c 1.5 0.8 3 1.9 4.5 3.5 V 10.9 c 0 -1.6 0.3 -2.8 0.9 -3.6 s 1.5 -1.2 2.7 -1.2 s 2 0.3 2.7 1.1 c 0.6 0.8 0.9 1.9 0.9 3.2 v 33.7 c 0 1.4 -0.3 2.5 -1 3.3 s -1.6 1.1 -2.6 1.1 s -1.9 -0.4 -2.6 -1.2 c -0.8 -0.6 -1.1 -1.8 -1.1 -3.2 h 0 h 0 z m -15 -11.2 c 0 2.1 0.3 3.8 1 5.3 c 0.6 1.4 1.5 2.5 2.7 3.3 c 1.1 0.8 2.4 1.1 3.6 1.1 c 1.3 0 2.5 -0.3 3.7 -1 c 1.1 -0.7 2 -1.8 2.7 -3.2 c 0.6 -1.4 1 -3.2 1 -5.4 c 0 -2 -0.3 -3.8 -1 -5.3 c -0.6 -1.4 -1.6 -2.6 -2.7 -3.4 c -1.2 -0.8 -2.4 -1.2 -3.7 -1.2 c -1.4 0 -2.7 0.4 -3.8 1.2 c -1.2 0.8 -2.1 2 -2.5 3.4 c -0.7 1.6 -1 3.3 -1 5.2 h 0 h 0 h 0 h 0 z m 55.4 0.6 v 10.2 c 0 1.6 -0.3 2.8 -1.1 3.6 s -1.7 1.2 -2.9 1.2 s -2.1 -0.4 -2.8 -1.2 s -1.1 -2 -1.1 -3.6 V 31.5 L 436 27 c -0.1 -1.1 -0.5 -2 -1 -2.6 c -0.6 -0.6 -1.5 -1 -2.7 -1 c -2.5 0 -4.2 0.9 -5 2.6 s -1.2 4.2 -1.2 7.4 v 10.4 c 0 1.6 -0.3 2.8 -1.1 3.6 c -0.7 0.8 -1.7 1.2 -2.8 1.2 s -2.1 -0.4 -2.8 -1.2 c -0.8 -0.8 -1.1 -2 -1.1 -3.6 V 21.9 c 0 -1.4 0.3 -2.5 1 -3.3 c 0.6 -0.8 1.6 -1.1 2.6 -1.1 s 1.9 0.3 2.6 1 s 1 1.7 1 2.9 v 0.8 c 1.3 -1.6 2.7 -2.8 4.3 -3.5 c 1.5 -0.8 3.2 -1.1 5 -1.1 c 1.9 0 3.6 0.4 5 1.2 s 2.5 1.9 3.4 3.5 c 1.3 -1.6 2.7 -2.7 4.2 -3.5 s 3.2 -1.2 4.9 -1.2 c 2.1 0 3.9 0.4 5.4 1.2 s 2.7 2 3.4 3.5 c 0.6 1.4 1 3.6 1 6.5 v 14.9 c 0 1.6 -0.3 2.8 -1.1 3.6 s -1.7 1.2 -2.9 1.2 s -2.1 -0.4 -2.8 -1.2 c -0.8 -0.8 -1.1 -2 -1.1 -3.6 V 30.9 c 0 -1.3 -0.1 -2.6 -0.2 -3.9 c -0.1 -1 -0.5 -1.8 -1.2 -2.5 c -0.6 -0.7 -1.6 -1 -2.8 -1 a 5.21 5.21 0 0 0 -2.9 0.9 a 6.11 6.11 0 0 0 -2.1 2.4 c -0.7 1.3 -0.9 3.5 -0.9 6.7 h 0 h 0 h 0 h 0 z m 29.1 -19.6 c -1 0 -2 -0.3 -2.7 -1 s -1.2 -1.6 -1.2 -2.8 c 0 -1 0.4 -2 1.2 -2.7 c 0.7 -0.7 1.7 -1 2.7 -1 s 1.9 0.3 2.7 0.9 s 1.2 1.6 1.2 2.8 s -0.3 2.1 -1.1 2.8 c -0.8 0.6 -1.7 1 -2.8 1 h 0 h 0 h 0 z m 3.9 7.9 v 22.1 c 0 1.5 -0.3 2.7 -1.1 3.5 s -1.7 1.2 -2.8 1.2 s -2 -0.4 -2.7 -1.2 s -1 -2 -1 -3.5 V 22 c 0 -1.5 0.3 -2.7 1 -3.4 s 1.6 -1.2 2.7 -1.2 s 2 0.4 2.8 1.2 c 0.7 0.7 1.1 1.9 1.1 3.2 h 0 z m 14.8 -0.2 v 0.9 c 1.3 -1.8 2.8 -3.1 4.4 -3.9 c 1.6 -0.9 3.4 -1.3 5.5 -1.3 c 2 0 3.8 0.5 5.4 1.3 c 1.6 0.9 2.8 2.1 3.6 3.7 c 0.5 0.9 0.8 2 1 3 c 0.2 1.1 0.2 2.5 0.2 4.2 v 14.2 c 0 1.5 -0.3 2.7 -1 3.5 s -1.6 1.2 -2.7 1.2 c -1.2 0 -2.1 -0.4 -2.8 -1.2 s -1 -2 -1 -3.5 V 31 c 0 -2.5 -0.3 -4.5 -1 -5.8 s -2.1 -2 -4.2 -2 c -1.3 0 -2.7 0.4 -3.7 1.2 c -1.2 0.8 -2.1 2 -2.5 3.4 c -0.3 1.2 -0.6 3.3 -0.6 6.4 v 9.6 c 0 1.6 -0.3 2.7 -1.1 3.5 c -0.7 0.8 -1.7 1.2 -2.8 1.2 s -2 -0.4 -2.7 -1.2 s -1 -2 -1 -3.5 v -22 c 0 -1.4 0.3 -2.5 0.9 -3.2 s 1.5 -1.1 2.6 -1.1 c 0.7 0 1.3 0.2 1.8 0.5 s 1 0.8 1.3 1.4 s 0.4 1.3 0.4 2.2 h 0 h 0 h 0 h 0 z" stroke-linecap="round" />
</g>
		<g transform="matrix(1 0 0 1 26.95 -0.8)"  >
<linearGradient id="SVGID_B_14" gradientUnits="userSpaceOnUse" gradientTransform="matrix(1 0 0 1 0 0)"  x1="55.5" y1="31.3" x2="510.4" y2="31.3">
<stop offset="0%" style="stop-color:rgb(52,153,255);stop-opacity: 1"/>
<stop offset="100%" style="stop-color:rgb(58,57,133);stop-opacity: 1"/>
</linearGradient>
<path style="stroke: none; stroke-width: 1; stroke-dasharray: none; stroke-linecap: butt; stroke-dashoffset: 0; stroke-linejoin: miter; stroke-miterlimit: 4; fill: url(#SVGID_B_14); fill-rule: nonzero; opacity: 1;"  transform=" translate(-282.95, -31.3)" d="M 62.5 20.1 v 0.9 c 1.4 -1.8 2.9 -3.1 4.5 -3.9 s 3.3 -1.3 5.3 -1.3 c 2.4 0 4.5 0.6 6.5 1.8 s 3.5 3 4.7 5.3 s 1.7 5.1 1.7 8.3 c 0 2.4 -0.3 4.5 -1 6.5 c -0.6 2 -1.6 3.6 -2.7 5 c -1.2 1.3 -2.5 2.4 -4.1 3.1 s -3.3 1.1 -5.1 1.1 c -2.2 0 -4 -0.5 -5.5 -1.3 c -1.5 -0.9 -2.9 -2.1 -4.2 -3.9 v 11.5 c 0 3.4 -1.2 5 -3.6 5 c -1.4 0 -2.4 -0.5 -2.8 -1.3 s -0.7 -2.1 -0.7 -3.8 V 20 c 0 -1.4 0.3 -2.5 0.9 -3.2 s 1.5 -1.1 2.6 -1.1 s 2 0.3 2.7 1.1 c 0.5 0.8 0.8 1.9 0.8 3.3 h 0 h 0 z m 15 11.1 c 0 -2 -0.3 -3.8 -0.9 -5.2 s -1.4 -2.5 -2.5 -3.4 c -1.1 -0.8 -2.3 -1.2 -3.6 -1.2 c -2.1 0 -3.9 0.8 -5.3 2.5 S 63 28 63 31.2 c 0 3.1 0.7 5.4 2.1 7.1 s 3.2 2.5 5.4 2.5 c 1.3 0 2.4 -0.3 3.5 -1.1 s 2 -1.9 2.6 -3.3 c 0.5 -1.3 0.9 -3.1 0.9 -5.2 h 0 z M 98.8 9.1 v 11.3 c 1 -1.1 1.9 -2 2.8 -2.7 c 0.9 -0.6 2 -1.2 3.1 -1.4 c 1.2 -0.3 2.4 -0.5 3.6 -0.5 c 2 0 3.6 0.4 5.1 1.2 s 2.7 2 3.5 3.6 c 0.5 1 0.9 2 1.1 3.1 c 0.2 1.2 0.3 2.4 0.3 3.9 v 14.6 c 0 1.5 -0.3 2.7 -1 3.5 s -1.6 1.2 -2.8 1.2 c -2.5 0 -3.8 -1.6 -3.8 -4.6 v -13 c 0 -2.4 -0.3 -4.3 -1.1 -5.7 s -2.1 -2 -4.2 -2 c -1.4 0 -2.6 0.4 -3.7 1.2 s -1.9 1.9 -2.4 3.2 c -0.4 1.2 -0.6 3.2 -0.6 6.1 v 10.1 c 0 1.5 -0.3 2.7 -1 3.5 s -1.6 1.2 -2.8 1.2 c -2.5 0 -3.8 -1.6 -3.8 -4.6 V 9.1 c 0 -1.6 0.3 -2.7 1 -3.5 c 0.6 -0.8 1.6 -1.2 2.8 -1.2 s 2.1 0.4 2.8 1.2 s 1.1 1.9 1.1 3.5 h 0 h 0 z m 34.2 11 v 0.9 c 1.4 -1.8 2.9 -3.1 4.5 -3.9 s 3.3 -1.3 5.3 -1.3 c 2.4 0 4.5 0.6 6.5 1.8 s 3.5 3 4.7 5.3 s 1.7 5.1 1.7 8.3 c 0 2.4 -0.3 4.5 -1 6.5 c -0.6 2 -1.6 3.6 -2.7 5 s -2.5 2.4 -4.1 3.1 s -3.3 1.1 -5.1 1.1 c -2.2 0 -4 -0.5 -5.5 -1.3 c -1.4 -0.9 -2.9 -2.1 -4.2 -3.9 v 11.5 c 0 3.4 -1.2 5 -3.6 5 c -1.4 0 -2.4 -0.5 -2.8 -1.3 s -0.7 -2.1 -0.7 -3.8 V 20 c 0 -1.4 0.3 -2.5 0.9 -3.2 s 1.5 -1.1 2.6 -1.1 s 2 0.3 2.7 1.1 c 0.5 0.8 0.8 1.9 0.8 3.3 h 0 h 0 h 0 h 0 z m 15 11.1 c 0 -2 -0.3 -3.8 -0.9 -5.2 s -1.4 -2.5 -2.5 -3.4 c -1.1 -0.8 -2.3 -1.2 -3.6 -1.2 c -2.1 0 -3.9 0.8 -5.3 2.5 s -2.2 4.1 -2.2 7.3 c 0 3.1 0.7 5.4 2.1 7.1 s 3.2 2.5 5.4 2.5 c 1.3 0 2.4 -0.3 3.5 -1.1 s 2 -1.9 2.6 -3.3 c 0.6 -1.2 0.9 -3.1 0.9 -5.2 h 0 h 0 z m 49.3 2.1 c 0 1.3 -0.3 2.7 -1 4.2 c -0.6 1.5 -1.7 3 -3.1 4.5 s -3.1 2.7 -5.3 3.6 c -2.1 0.9 -4.6 1.4 -7.5 1.4 c -2.1 0 -4.2 -0.2 -5.9 -0.6 c -1.8 -0.4 -3.4 -1 -4.9 -1.9 c -1.4 -0.9 -2.8 -2 -4 -3.4 c -1.1 -1.3 -2 -2.7 -2.8 -4.3 s -1.3 -3.4 -1.7 -5.1 c -0.4 -1.8 -0.6 -3.8 -0.6 -5.8 c 0 -3.3 0.5 -6.2 1.4 -8.9 c 1 -2.6 2.3 -4.9 4.1 -6.7 c 1.8 -1.9 3.9 -3.3 6.3 -4.2 c 2.4 -1 5 -1.4 7.7 -1.4 c 3.3 0 6.3 0.6 8.9 2 s 4.6 2.9 6 4.9 s 2.1 3.8 2.1 5.6 c 0 0.9 -0.3 1.8 -1 2.5 c -0.6 0.7 -1.5 1.1 -2.4 1.1 c -1 0 -1.9 -0.2 -2.4 -0.8 c -0.5 -0.5 -1.1 -1.4 -1.8 -2.6 c -1.1 -2 -2.4 -3.6 -3.8 -4.6 s -3.3 -1.5 -5.4 -1.5 c -3.4 0 -6.1 1.3 -8.2 3.9 s -3.1 6.3 -3.1 11 c 0 3.2 0.5 5.8 1.3 8 c 0.9 2.1 2.1 3.7 3.8 4.7 c 1.6 1 3.6 1.6 5.8 1.6 c 2.4 0 4.4 -0.6 6.1 -1.8 s 2.9 -2.9 3.8 -5.2 c 0.3 -1 0.7 -1.9 1.3 -2.7 c 0.5 -0.7 1.4 -1 2.5 -1 c 1 0 1.9 0.3 2.5 1 c 1 0.5 1.3 1.4 1.3 2.5 h 0 h 0 h 0 z m 26.4 9.3 c -1.9 1.4 -3.6 2.5 -5.4 3.2 c -1.7 0.7 -3.6 1.1 -5.8 1.1 c -2 0 -3.7 -0.4 -5.1 -1.2 c -1.4 -0.7 -2.5 -1.8 -3.4 -3.1 c -0.8 -1.3 -1.2 -2.8 -1.2 -4.3 c 0 -2.1 0.6 -3.9 2 -5.4 c 1.3 -1.5 3.1 -2.5 5.4 -2.9 l 3.6 -0.8 l 5 -1.1 c 1.4 -0.3 2.8 -0.8 4.5 -1.2 c -0.1 -2 -0.5 -3.5 -1.2 -4.5 s -2.2 -1.4 -4.5 -1.4 c -2 0 -3.4 0.3 -4.4 0.8 s -1.8 1.3 -2.5 2.4 l -1.5 2.1 s -0.9 0.5 -1.9 0.5 c -0.9 0 -1.6 -0.3 -2.3 -0.8 c -0.6 -0.6 -0.9 -1.3 -0.9 -2.1 c 0 -1.3 0.5 -2.7 1.4 -3.9 s 2.4 -2.3 4.5 -3.1 s 4.5 -1.2 7.5 -1.2 c 3.4 0 6 0.4 7.9 1.2 s 3.3 2 4 3.8 c 0.8 1.7 1.2 4 1.2 6.8 v 4.6 l -0.1 4.2 c 0 1.4 0.2 2.9 0.7 4.5 s 0.7 2.5 0.7 3 c 0 0.8 -0.3 1.5 -1.1 2.1 s -1.6 1 -2.5 1 c -0.8 0 -1.6 -0.3 -2.3 -1.1 c -0.7 -0.7 -1.5 -1.8 -2.3 -3.2 h 0 h 0 h 0 h 0 z m -0.6 -11.1 c -1.1 0.4 -2.8 0.9 -4.9 1.3 l -4.5 1 c -0.8 0.2 -1.6 0.6 -2.4 1.3 s -1.1 1.5 -1.1 2.6 c 0 1.2 0.5 2.1 1.3 2.9 c 0.9 0.8 2 1.2 3.5 1.2 s 2.9 -0.3 4.2 -1 c 1.2 -0.5 2.1 -1.4 2.8 -2.5 c 0.7 -1.2 1 -3.1 1 -5.7 l 0.1 -1.1 h 0 h 0 h 0 h 0 z m 42.7 5.9 c 0 0.9 -0.3 2 -0.9 3.1 s -1.4 2.1 -2.6 3.1 s -2.7 1.8 -4.4 2.4 c -1.8 0.6 -3.8 0.9 -6 0.9 c -4.7 0 -8.4 -1.4 -11 -4.1 c -2.7 -2.8 -4 -6.4 -4 -11.1 c 0 -3.1 0.6 -5.9 1.8 -8.3 s 2.9 -4.3 5.3 -5.6 c 2.3 -1.3 5 -2 8.2 -2 c 2 0 3.8 0.3 5.4 0.9 s 3.1 1.3 4.2 2.3 c 1.2 0.9 2 1.9 2.7 2.9 c 0.6 1 0.9 2 0.9 2.9 s -0.3 1.7 -1 2.3 s -1.5 0.9 -2.5 0.9 c -0.6 0 -1.2 -0.2 -1.6 -0.5 s -0.9 -0.9 -1.4 -1.6 c -0.9 -1.4 -1.9 -2.5 -2.9 -3.2 s -2.3 -1 -3.9 -1 c -2.3 0 -4.1 0.9 -5.4 2.7 s -2.1 4.2 -2.1 7.2 c 0 1.4 0.2 2.8 0.5 4 c 0.3 1.1 0.8 2.2 1.6 3.1 c 0.7 0.8 1.5 1.5 2.4 1.9 c 0.9 0.5 2 0.6 3.1 0.6 c 1.5 0 2.8 -0.3 3.9 -1 s 2.1 -1.8 2.9 -3.2 c 0.4 -0.8 0.9 -1.4 1.5 -2 c 0.5 -0.5 1.2 -0.8 2 -0.8 c 0.9 0 1.7 0.3 2.3 1 s 1 1.5 1 2.2 h 0 h 0 h 0 h 0 z m 12.8 -28.3 v 11.3 c 1 -1.1 1.9 -2 2.8 -2.7 c 0.9 -0.6 2 -1.2 3.1 -1.4 c 1.2 -0.3 2.4 -0.5 3.6 -0.5 c 2 0 3.6 0.4 5.1 1.2 s 2.7 2 3.5 3.6 c 0.5 1 0.9 2 1.1 3.1 c 0.2 1.2 0.3 2.4 0.3 3.9 v 14.6 c 0 1.5 -0.3 2.7 -1 3.5 s -1.6 1.2 -2.8 1.2 c -2.5 0 -3.8 -1.6 -3.8 -4.6 v -13 c 0 -2.4 -0.3 -4.3 -1.1 -5.7 c -0.8 -1.3 -2.1 -2 -4.2 -2 c -1.4 0 -2.6 0.4 -3.7 1.2 s -1.9 1.9 -2.4 3.2 c -0.4 1.2 -0.6 3.2 -0.6 6.1 v 10.1 c 0 1.5 -0.3 2.7 -1 3.5 s -1.6 1.2 -2.8 1.2 c -2.5 0 -3.8 -1.6 -3.8 -4.6 V 9.1 c 0 -1.6 0.3 -2.7 1 -3.5 c 0.6 -0.8 1.6 -1.2 2.8 -1.2 s 2.1 0.4 2.8 1.2 s 1.1 1.9 1.1 3.5 h 0 h 0 z m 48.5 24.2 h -15 c 0 1.7 0.3 3.3 1 4.6 s 1.6 2.3 2.7 3 c 1.2 0.7 2.4 1 3.8 1 c 0.9 0 1.7 -0.1 2.5 -0.3 s 1.5 -0.6 2.2 -1 l 2 -1.4 l 2.3 -2.1 c 0.4 -0.3 0.9 -0.5 1.7 -0.5 s 1.4 0.2 1.9 0.6 s 0.8 1 0.8 1.8 c 0 0.7 -0.3 1.5 -0.8 2.4 s -1.3 1.8 -2.4 2.7 s -2.5 1.6 -4.1 2.1 c -1.6 0.6 -3.5 0.9 -5.7 0.9 c -4.9 0 -8.7 -1.4 -11.5 -4.2 c -2.7 -2.8 -4.1 -6.6 -4.1 -11.4 c 0 -2.3 0.3 -4.3 1 -6.3 c 0.6 -2 1.7 -3.6 2.9 -5 s 2.9 -2.4 4.7 -3.2 c 1.9 -0.8 4 -1.1 6.3 -1.1 c 3 0 5.6 0.6 7.7 1.9 s 3.8 2.9 4.8 4.9 s 1.6 4 1.6 6.1 c 0 1.9 -0.6 3.2 -1.7 3.8 c -1.1 0.4 -2.6 0.7 -4.6 0.7 h 0 h 0 h 0 h 0 z m -15 -4.4 H 326 c -0.2 -2.6 -0.9 -4.6 -2.1 -5.8 c -1.2 -1.3 -2.8 -2 -4.9 -2 c -1.9 0 -3.5 0.6 -4.7 2 s -1.9 3.2 -2.2 5.8 z m 54.5 12.7 l -2 -5.1 H 348 l -2 5.3 c -0.8 2.1 -1.4 3.5 -2 4.2 c -0.5 0.7 -1.4 1.1 -2.7 1.1 c -1 0 -2 -0.4 -2.8 -1.2 s -1.2 -1.6 -1.2 -2.6 c 0 -0.6 0.1 -1.2 0.3 -1.7 c 0.2 -0.6 0.5 -1.4 0.9 -2.5 L 349 12.4 l 1.1 -2.8 c 0.5 -1.1 0.9 -2 1.3 -2.7 c 0.5 -0.7 1.1 -1.3 1.9 -1.7 c 0.8 -0.5 1.7 -0.6 2.9 -0.6 s 2.1 0.2 2.9 0.6 c 0.8 0.5 1.4 1 1.9 1.7 s 0.9 1.4 1.2 2.3 l 1.3 3.2 l 10.8 26.5 c 0.9 2 1.3 3.5 1.3 4.4 s -0.4 1.9 -1.2 2.6 c -0.8 0.8 -1.7 1.2 -2.9 1.2 c -0.6 0 -1.2 -0.1 -1.7 -0.3 s -0.9 -0.6 -1.2 -0.9 c -0.3 -0.4 -0.6 -1 -1 -1.9 l -1 -2.4 h 0 h 0 h 0 h 0 z m -16.4 -11.5 h 12.3 l -6.2 -16.9 l -6.1 16.9 h 0 h 0 z M 402 42.6 v -0.8 c -0.9 1.1 -1.9 2.1 -3.1 2.9 c -1 0.8 -2.1 1.3 -3.2 1.7 c -1.2 0.4 -2.4 0.6 -3.8 0.6 a 11.25 11.25 0 0 1 -5.1 -1.2 c -1.6 -0.8 -2.9 -1.9 -4 -3.3 c -1.2 -1.4 -2 -3.1 -2.6 -5.1 s -0.9 -4 -0.9 -6.3 c 0 -4.8 1.2 -8.5 3.5 -11.2 s 5.4 -4 9.2 -4 c 2.2 0 4 0.4 5.6 1.2 c 1.5 0.8 3 1.9 4.5 3.5 V 9.3 c 0 -1.6 0.3 -2.8 0.9 -3.6 s 1.5 -1.2 2.7 -1.2 s 2 0.3 2.7 1.1 s 0.9 1.9 0.9 3.2 v 33.7 c 0 1.4 -0.3 2.5 -1 3.3 s -1.6 1.1 -2.6 1.1 s -1.9 -0.4 -2.6 -1.2 s -1.1 -1.7 -1.1 -3.1 h 0 h 0 z m -15 -11.3 c 0 2.1 0.3 3.8 1 5.3 c 0.6 1.4 1.5 2.5 2.7 3.3 c 1.1 0.8 2.4 1.1 3.6 1.1 c 1.3 0 2.5 -0.3 3.7 -1 c 1.1 -0.7 2 -1.8 2.7 -3.2 c 0.6 -1.4 1 -3.2 1 -5.4 c 0 -2 -0.3 -3.8 -1 -5.3 c -0.6 -1.4 -1.6 -2.6 -2.7 -3.4 c -1.2 -0.8 -2.4 -1.2 -3.7 -1.2 c -1.4 0 -2.7 0.4 -3.8 1.2 c -1.2 0.8 -2.1 2 -2.5 3.4 c -0.7 1.7 -1 3.4 -1 5.2 h 0 h 0 h 0 h 0 z m 55.4 0.6 v 10.2 c 0 1.6 -0.3 2.8 -1.1 3.6 s -1.7 1.2 -2.9 1.2 s -2.1 -0.4 -2.8 -1.2 s -1.1 -2 -1.1 -3.6 V 29.9 l -0.2 -4.5 c -0.1 -1.1 -0.5 -2 -1 -2.6 s -1.5 -1 -2.7 -1 c -2.5 0 -4.2 0.9 -5 2.6 s -1.2 4.2 -1.2 7.4 v 10.4 c 0 1.6 -0.3 2.8 -1.1 3.6 c -0.7 0.8 -1.7 1.2 -2.8 1.2 s -2.1 -0.4 -2.8 -1.2 c -0.8 -0.8 -1.1 -2 -1.1 -3.6 v -22 c 0 -1.4 0.3 -2.5 1 -3.3 c 0.6 -0.8 1.6 -1.1 2.6 -1.1 s 1.9 0.3 2.6 1 s 1 1.7 1 2.9 v 0.8 c 1.3 -1.6 2.7 -2.8 4.3 -3.5 c 1.5 -0.8 3.2 -1.1 5 -1.1 c 1.9 0 3.6 0.4 5 1.2 s 2.5 1.9 3.4 3.5 c 1.3 -1.6 2.7 -2.7 4.2 -3.5 s 3.2 -1.2 4.9 -1.2 c 2.1 0 3.9 0.4 5.4 1.2 s 2.7 2 3.4 3.5 c 0.6 1.4 1 3.6 1 6.5 V 42 c 0 1.6 -0.3 2.8 -1.1 3.6 s -1.7 1.2 -2.9 1.2 s -2.1 -0.4 -2.8 -1.2 c -0.8 -0.8 -1.1 -2 -1.1 -3.6 V 29.2 c 0 -1.3 -0.1 -2.6 -0.2 -3.9 c -0.1 -1 -0.5 -1.8 -1.2 -2.5 c -0.6 -0.7 -1.6 -1 -2.8 -1 a 5.21 5.21 0 0 0 -2.9 0.9 a 6.11 6.11 0 0 0 -2.1 2.4 c -0.6 1.2 -0.9 3.5 -0.9 6.8 h 0 h 0 h 0 h 0 z m 29.2 -19.6 c -1 0 -2 -0.3 -2.7 -1 c -0.8 -0.6 -1.2 -1.6 -1.2 -2.8 c 0 -1 0.4 -2 1.2 -2.7 c 0.7 -0.7 1.7 -1 2.7 -1 s 1.9 0.3 2.7 0.9 s 1.2 1.6 1.2 2.8 s -0.3 2.1 -1.1 2.8 c -0.9 0.6 -1.7 1 -2.8 1 h 0 h 0 h 0 z m 3.8 7.9 v 22.1 c 0 1.5 -0.3 2.7 -1.1 3.5 s -1.7 1.2 -2.8 1.2 s -2 -0.4 -2.7 -1.2 s -1 -2 -1 -3.5 V 20.4 c 0 -1.5 0.3 -2.7 1 -3.4 c 0.7 -0.8 1.6 -1.2 2.7 -1.2 s 2 0.4 2.8 1.2 c 0.7 0.7 1.1 1.8 1.1 3.2 z m 14.9 -0.1 v 0.9 c 1.3 -1.8 2.8 -3.1 4.4 -3.9 c 1.6 -0.9 3.4 -1.3 5.5 -1.3 c 2 0 3.8 0.5 5.4 1.3 c 1.6 0.9 2.8 2.1 3.6 3.7 c 0.5 0.9 0.8 2 1 3 c 0.2 1.1 0.2 2.5 0.2 4.2 v 14.2 c 0 1.5 -0.3 2.7 -1 3.5 s -1.6 1.2 -2.7 1.2 c -1.2 0 -2.1 -0.4 -2.8 -1.2 s -1 -2 -1 -3.5 V 29.4 c 0 -2.5 -0.3 -4.5 -1 -5.8 s -2.1 -2 -4.2 -2 c -1.3 0 -2.7 0.4 -3.7 1.2 c -1.2 0.8 -2.1 2 -2.5 3.4 c -0.3 1.2 -0.6 3.3 -0.6 6.4 v 9.6 c 0 1.6 -0.3 2.7 -1.1 3.5 c -0.7 0.8 -1.7 1.2 -2.8 1.2 s -2 -0.4 -2.7 -1.2 s -1 -2 -1 -3.5 V 20 c 0 -1.4 0.3 -2.5 0.9 -3.2 s 1.5 -1.1 2.6 -1.1 c 0.7 0 1.3 0.2 1.8 0.5 s 1 0.8 1.3 1.4 c 0.3 0.8 0.4 1.7 0.4 2.5 h 0 h 0 h 0 h 0 z" stroke-linecap="round" />
</g>
</g>
</g>
<g transform="matrix(1.85 0 0 1.85 640.03 210.97)"  >
<g style=""   >
		<g transform="matrix(1 0 0 1 -23.77 -1.87)" id="Layer_1-2"  >
<path style="stroke: none; stroke-width: 1; stroke-dasharray: none; stroke-linecap: butt; stroke-dashoffset: 0; stroke-linejoin: miter; stroke-miterlimit: 4; fill: rgb(255,255,255); fill-rule: nonzero; opacity: 1;"  transform=" translate(-201.37, -68.38)" d="M 181.08 101.14 V 35.62 h 13.18 V 89.43 h 27.4 v 11.71 Z" stroke-linecap="round" />
</g>
		<g transform="matrix(1 0 0 1 26.33 6.77)" id="Layer_1-2"  >
<path style="stroke: none; stroke-width: 1; stroke-dasharray: none; stroke-linecap: butt; stroke-dashoffset: 0; stroke-linejoin: miter; stroke-miterlimit: 4; fill: rgb(255,255,255); fill-rule: nonzero; opacity: 1;"  transform=" translate(-251.47, -77.02)" d="M 225.37 77 a 26 26 0 0 1 2 -10.4 a 22.84 22.84 0 0 1 5.5 -7.93 a 25.39 25.39 0 0 1 7.87 -4.93 A 24.93 24.93 0 0 1 250 52 a 22.43 22.43 0 0 1 8.23 1.69 A 13.94 13.94 0 0 1 265 59 V 53.07 h 12.57 v 48.07 H 265 V 94.93 a 13.48 13.48 0 0 1 -6.5 5.28 a 21.91 21.91 0 0 1 -8.41 1.84 a 25.07 25.07 0 0 1 -12 -3 a 23.55 23.55 0 0 1 -9.12 -8.81 A 25 25 0 0 1 225.37 77 Z m 13.18 0 a 12.12 12.12 0 0 0 4 9.29 a 13.79 13.79 0 0 0 18.55 0.15 A 12.1 12.1 0 0 0 265 77 A 12 12 0 0 0 261 67.6 a 13.75 13.75 0 0 0 -18.51 0.12 A 12.11 12.11 0 0 0 238.55 77 Z" stroke-linecap="round" />
</g>
		<g transform="matrix(1 0 0 1 85.82 6.34)" id="Layer_1-2"  >
<path style="stroke: none; stroke-width: 1; stroke-dasharray: none; stroke-linecap: butt; stroke-dashoffset: 0; stroke-linejoin: miter; stroke-miterlimit: 4; fill: rgb(255,255,255); fill-rule: nonzero; opacity: 1;"  transform=" translate(-310.96, -76.59)" d="M 288.56 101.14 V 53.07 h 12.57 v 7.19 a 14.54 14.54 0 0 1 6 -6 A 17 17 0 0 1 315.46 52 q 8.49 0 13.2 5.34 t 4.7 15.38 v 28.41 H 320.79 v -26 q 0 -5.1 -2.46 -7.89 a 8.51 8.51 0 0 0 -6.69 -2.77 a 10.82 10.82 0 0 0 -7.59 2.65 q -2.93 2.66 -2.92 8.51 v 25.54 Z" stroke-linecap="round" />
</g>
		<g transform="matrix(1 0 0 1 141.68 -3.02)" id="Layer_1-2"  >
<path style="stroke: none; stroke-width: 1; stroke-dasharray: none; stroke-linecap: butt; stroke-dashoffset: 0; stroke-linejoin: miter; stroke-miterlimit: 4; fill: rgb(255,255,255); fill-rule: nonzero; opacity: 1;"  transform=" translate(-366.82, -67.23)" d="M 343 87.46 a 26.88 26.88 0 0 1 -1.93 -10.28 A 27.37 27.37 0 0 1 343 66.84 a 23.61 23.61 0 0 1 5.17 -8 a 23.15 23.15 0 0 1 7.57 -5 a 23.49 23.49 0 0 1 9.1 -1.8 a 20.53 20.53 0 0 1 9 2 A 13.14 13.14 0 0 1 380 59.52 V 32.3 h 12.58 v 68.84 H 380 V 94.63 a 13.33 13.33 0 0 1 -6.1 5.53 a 20.53 20.53 0 0 1 -9 2 a 23.44 23.44 0 0 1 -9.07 -1.79 a 23.76 23.76 0 0 1 -7.58 -5 A 23 23 0 0 1 343 87.46 Z M 354.26 77 a 12.78 12.78 0 0 0 3.64 9.45 a 12.23 12.23 0 0 0 9 3.65 A 12.62 12.62 0 0 0 379.75 77 a 12.07 12.07 0 0 0 -3.84 -9.37 a 12.89 12.89 0 0 0 -9 -3.53 a 12.33 12.33 0 0 0 -9 3.58 A 12.47 12.47 0 0 0 354.26 77 Z" stroke-linecap="round" />
</g>
		<g transform="matrix(1 0 0 1 200.04 6.78)" id="Layer_1-2"  >
<path style="stroke: none; stroke-width: 1; stroke-dasharray: none; stroke-linecap: butt; stroke-dashoffset: 0; stroke-linejoin: miter; stroke-miterlimit: 4; fill: rgb(255,255,255); fill-rule: nonzero; opacity: 1;"  transform=" translate(-425.18, -77.03)" d="M 403.52 90.22 a 25.24 25.24 0 0 1 -3.43 -13.16 a 25.32 25.32 0 0 1 3.43 -13.18 a 23.33 23.33 0 0 1 9.13 -8.81 a 27.2 27.2 0 0 1 25.07 0 a 23.27 23.27 0 0 1 9.13 8.84 a 25.31 25.31 0 0 1 3.43 13.15 a 25.24 25.24 0 0 1 -3.43 13.13 A 23.19 23.19 0 0 1 437.72 99 a 27.28 27.28 0 0 1 -25.07 0 A 23.25 23.25 0 0 1 403.52 90.22 Z m 9.14 -13.16 a 12.59 12.59 0 0 0 3.62 9.34 a 12.87 12.87 0 0 0 17.81 0 a 12.59 12.59 0 0 0 3.62 -9.34 a 12.12 12.12 0 0 0 -3.62 -9.14 a 13.08 13.08 0 0 0 -17.79 0 A 12.13 12.13 0 0 0 412.66 77.06 Z" stroke-linecap="round" />
</g>
		<g transform="matrix(1 0 0 1 -154.89 0)" id="Layer_1-2"  >
<path style="stroke: none; stroke-width: 1; stroke-dasharray: none; stroke-linecap: butt; stroke-dashoffset: 0; stroke-linejoin: miter; stroke-miterlimit: 4; fill: rgb(223,64,144); fill-rule: nonzero; opacity: 1;"  transform=" translate(-70.25, -70.25)" d="M 70.25 0 A 70.25 70.25 0 1 0 140.5 70.25 A 70.34 70.34 0 0 0 70.25 0 Z m 0 8.92 a 61.36 61.36 0 0 1 57.46 39.85 c -4.53 -2.69 -13.49 -3.54 -25 -2.58 c -1.26 0.1 -2.72 1 0.06 1.21 c 3.3 0.24 8.22 1.31 9.6 4.12 c 2.68 5.47 -7.53 9 -11 10.78 v 0 c -0.11 -0.44 -0.23 -0.88 -0.36 -1.33 A 32.11 32.11 0 1 0 39.44 79.12 c 0.13 0.44 0.27 0.87 0.42 1.31 l 0 0 c -3.83 0.36 -14.33 2.9 -15 -3.15 c -0.36 -3.11 3.19 -6.67 5.84 -8.66 c 2.23 -1.67 0.52 -1.64 -0.6 -1 C 19.75 73 12.62 78.62 10.34 83.36 A 61.32 61.32 0 0 1 70.25 8.92 Z m 0 122.66 A 61.34 61.34 0 0 1 12.61 91.25 c 5.64 3.52 18.62 4 34.94 1.54 A 32.12 32.12 0 0 0 101.63 76.9 c 14.91 -6.69 25.5 -14 28.48 -20 a 61.34 61.34 0 0 1 -59.86 74.69 Z" stroke-linecap="round" />
</g>
</g>
</g>
</svg>